<svg xmlns="http://www.w3.org/2000/svg" xmlns:xlink="http://www.w3.org/1999/xlink" viewBox="0 0 459 459"><defs><style>.cls-1{fill:#fff;}.cls-2{fill:url(#Безымянный_градиент_30);}</style><linearGradient id="Безымянный_градиент_30" x1="1.13" y1="411.22" x2="431.51" y2="22.9" gradientUnits="userSpaceOnUse"><stop offset="0.02" stop-color="#00bed9"/><stop offset="0.07" stop-color="#0eacd3"/><stop offset="0.25" stop-color="#3778c1"/><stop offset="0.42" stop-color="#584db3"/><stop offset="0.58" stop-color="#722ba8"/><stop offset="0.74" stop-color="#8513a0"/><stop offset="0.88" stop-color="#90059b"/><stop offset="1" stop-color="#940099"/></linearGradient></defs><title>Ресурс 43</title><g id="Слой_2" data-name="Слой 2"><g id="Слой_1-2" data-name="Слой 1"><path class="cls-1" d="M229.5,458.5A229,229,0,0,1,67.57,67.57,229,229,0,0,1,391.43,391.43,227.52,227.52,0,0,1,229.5,458.5Z"/><path d="M229.5,1A228.43,228.43,0,0,1,391.07,391.07,228.49,228.49,0,1,1,140.56,19,227,227,0,0,1,229.5,1m0-1C102.75,0,0,102.75,0,229.5S102.75,459,229.5,459,459,356.25,459,229.5,356.25,0,229.5,0Z"/><path class="cls-2" d="M217.47,113.51a45.1,45.1,0,0,0-13.92,33.34v47.46h88.24v40.78H203.55V385.7H162.76V146.85a84.27,84.27,0,0,1,12-43.73A90.26,90.26,0,0,1,206.88,71a84.34,84.34,0,0,1,43.73-12h46.67V99.79H250.61A45.62,45.62,0,0,0,217.47,113.51Z"/></g></g></svg>