<svg xmlns="http://www.w3.org/2000/svg" xmlns:xlink="http://www.w3.org/1999/xlink" viewBox="0 0 459 459"><defs><style>.cls-1{fill:#fff;}.cls-2{fill:url(#Безымянный_градиент_30);}</style><linearGradient id="Безымянный_градиент_30" x1="-382.97" y1="663.25" x2="565.17" y2="-38.96" gradientUnits="userSpaceOnUse"><stop offset="0.02" stop-color="#00bed9"/><stop offset="0.07" stop-color="#0eacd3"/><stop offset="0.25" stop-color="#3778c1"/><stop offset="0.42" stop-color="#584db3"/><stop offset="0.58" stop-color="#722ba8"/><stop offset="0.74" stop-color="#8513a0"/><stop offset="0.88" stop-color="#90059b"/><stop offset="1" stop-color="#940099"/></linearGradient></defs><title>Ресурс 44</title><g id="Слой_2" data-name="Слой 2"><g id="Слой_1-2" data-name="Слой 1"><path class="cls-1" d="M113.8,458.5C51.33,458.5.5,406.08.5,341.64V117.36C.5,52.92,51.33.5,113.8.5H345.2c62.47,0,113.3,52.42,113.3,116.86V341.64c0,64.44-50.83,116.86-113.3,116.86Z"/><path d="M345.2,1A110.35,110.35,0,0,1,425,35.07,117.48,117.48,0,0,1,458,117.36V341.64A117.48,117.48,0,0,1,425,423.93,110.35,110.35,0,0,1,345.2,458H113.8a110.35,110.35,0,0,1-79.75-34.07A117.48,117.48,0,0,1,1,341.64V117.36A117.48,117.48,0,0,1,34.05,35.07,110.35,110.35,0,0,1,113.8,1H345.2m0-1H113.8C51,0,0,52.54,0,117.36V341.64C0,406.46,51,459,113.8,459H345.2C408.05,459,459,406.46,459,341.64V117.36C459,52.54,408.05,0,345.2,0Z"/><path class="cls-2" d="M217,113.51A45.1,45.1,0,0,0,203,146.85v47.46h88.24v40.78H203V385.7H162.24V146.85a84.27,84.27,0,0,1,12-43.73A90.26,90.26,0,0,1,206.36,71a84.34,84.34,0,0,1,43.73-12h46.67V99.79H250.09A45.62,45.62,0,0,0,217,113.51Z"/></g></g></svg>