<svg xmlns="http://www.w3.org/2000/svg" xmlns:xlink="http://www.w3.org/1999/xlink" viewBox="0 0 459 459"><defs><style>.cls-1{fill:url(#Безымянный_градиент_30);}.cls-2{fill:#fff;}</style><linearGradient id="Безымянный_градиент_30" x1="-90.28" y1="436.82" x2="896.21" y2="-202.75" gradientUnits="userSpaceOnUse"><stop offset="0.02" stop-color="#00bed9"/><stop offset="0.07" stop-color="#0eacd3"/><stop offset="0.25" stop-color="#3778c1"/><stop offset="0.42" stop-color="#584db3"/><stop offset="0.58" stop-color="#722ba8"/><stop offset="0.74" stop-color="#8513a0"/><stop offset="0.88" stop-color="#90059b"/><stop offset="1" stop-color="#940099"/></linearGradient></defs><title>Ресурс 45</title><g id="Слой_2" data-name="Слой 2"><g id="Слой_1-2" data-name="Слой 1"><path class="cls-1" d="M345.2,459H113.8C51,459,0,406.46,0,341.64V117.36C0,52.54,51,0,113.8,0H345.2C408.05,0,459,52.54,459,117.36V341.64C459,406.46,408.05,459,345.2,459Z"/><path class="cls-2" d="M217,113.51A45.1,45.1,0,0,0,203,146.85v47.46h88.24v40.78H203V385.7H162.24V146.85a84.27,84.27,0,0,1,12-43.73A90.26,90.26,0,0,1,206.36,71a84.34,84.34,0,0,1,43.73-12h46.67V99.79H250.09A45.62,45.62,0,0,0,217,113.51Z"/></g></g></svg>