<svg xmlns="http://www.w3.org/2000/svg" xmlns:xlink="http://www.w3.org/1999/xlink" viewBox="0 0 459 459"><defs><style>.cls-1{fill:url(#Безымянный_градиент_30);}.cls-2{fill:#fff;}</style><linearGradient id="Безымянный_градиент_30" x1="-115.03" y1="500.47" x2="794.27" y2="-214.68" gradientUnits="userSpaceOnUse"><stop offset="0.02" stop-color="#00bed9"/><stop offset="0.07" stop-color="#0eacd3"/><stop offset="0.25" stop-color="#3778c1"/><stop offset="0.42" stop-color="#584db3"/><stop offset="0.58" stop-color="#722ba8"/><stop offset="0.74" stop-color="#8513a0"/><stop offset="0.88" stop-color="#90059b"/><stop offset="1" stop-color="#940099"/></linearGradient></defs><title>Ресурс 41</title><g id="Слой_2" data-name="Слой 2"><g id="Слой_1-2" data-name="Слой 1"><circle class="cls-1" cx="229.5" cy="229.5" r="229.5"/><path class="cls-2" d="M64.43,188.37a14.13,14.13,0,0,0-4.37,10.45v14.89H87.74V226.5H60.06v47.23H47.27V198.82A26.43,26.43,0,0,1,51,185.11,28.2,28.2,0,0,1,61.11,175a26.43,26.43,0,0,1,13.71-3.75H89.46v12.79H74.82A14.29,14.29,0,0,0,64.43,188.37Z"/><path class="cls-2" d="M143.46,245.81V219.73a14.33,14.33,0,0,0-4.37-10.51,14.49,14.49,0,0,0-10.64-4.37,14.92,14.92,0,0,0-14.88,14.88v26.08h-13V219.73a27.34,27.34,0,0,1,3.75-14,27.78,27.78,0,0,1,10.21-10.21,28.1,28.1,0,0,1,28.05,0,28,28,0,0,1,10.21,10.15,27.22,27.22,0,0,1,3.75,14v26.08Zm-29,24.17a27.7,27.7,0,0,1-10.21-10.21,27.32,27.32,0,0,1-3.75-14h13a14.9,14.9,0,0,0,14.88,14.88,14.9,14.9,0,0,0,15-14.88h13a27.22,27.22,0,0,1-3.75,14A27.92,27.92,0,0,1,142.54,270a28.1,28.1,0,0,1-28,0Z"/><path class="cls-2" d="M227.47,191.81v81.92H199.3a27,27,0,0,1-14-3.81,28.72,28.72,0,0,1-10.27-10.27,27,27,0,0,1-3.81-14h13a15.11,15.11,0,0,0,15,15h15.13V191.81Zm-43.17,0v53.88h-13V191.81Z"/><path class="cls-2" d="M248.44,205.77a27.94,27.94,0,0,1,24.3-14v13a14.92,14.92,0,0,0-15,15v53.87h-13V219.86A27.57,27.57,0,0,1,248.44,205.77Z"/><path class="cls-2" d="M341,229.82v16a27.22,27.22,0,0,1-3.75,14A28.06,28.06,0,0,1,313,273.73,27.29,27.29,0,0,1,299,270a27.63,27.63,0,0,1-10.21-10.21,27.22,27.22,0,0,1-3.75-14h13a14.95,14.95,0,0,0,29.89,0v-5.29L285,232.77v-13a27.24,27.24,0,0,1,3.75-14A27.7,27.7,0,0,1,299,195.56a27.93,27.93,0,0,1,30.5,1.66,27.93,27.93,0,0,1,10.15,13.9l-12.18,4.8a15,15,0,0,0-5.35-7.93,14.91,14.91,0,0,0-24.05,11.74v2.34Z"/><path class="cls-2" d="M397.77,195.56A27.92,27.92,0,0,1,408,205.71a27.22,27.22,0,0,1,3.75,14v13l-42.93,7.75v5.29a14.95,14.95,0,0,0,29.89,0h13a27.22,27.22,0,0,1-3.75,14,28.06,28.06,0,0,1-24.3,13.9,27.34,27.34,0,0,1-14-3.75,27.78,27.78,0,0,1-10.21-10.21,27.32,27.32,0,0,1-3.75-14V219.73a27.34,27.34,0,0,1,3.75-14,27.85,27.85,0,0,1,10.21-10.21,28.1,28.1,0,0,1,28,0Zm.92,26.51v-2.34a14.33,14.33,0,0,0-4.37-10.51,14.47,14.47,0,0,0-10.64-4.37,14.92,14.92,0,0,0-14.88,14.88v7.75Z"/></g></g></svg>