<svg xmlns="http://www.w3.org/2000/svg" xmlns:xlink="http://www.w3.org/1999/xlink" viewBox="0 0 459 459"><defs><style>.cls-1{fill:#fff;}.cls-2{fill:url(#Безымянный_градиент_30);}.cls-3{fill:url(#Безымянный_градиент_30-2);}.cls-4{fill:url(#Безымянный_градиент_30-3);}.cls-5{fill:url(#Безымянный_градиент_30-4);}.cls-6{fill:url(#Безымянный_градиент_30-5);}.cls-7{fill:url(#Безымянный_градиент_30-6);}</style><linearGradient id="Безымянный_градиент_30" x1="-446.92" y1="477.61" x2="1290.79" y2="-389.62" gradientUnits="userSpaceOnUse"><stop offset="0.02" stop-color="#00bed9"/><stop offset="0.07" stop-color="#0eacd3"/><stop offset="0.25" stop-color="#3778c1"/><stop offset="0.42" stop-color="#584db3"/><stop offset="0.58" stop-color="#722ba8"/><stop offset="0.74" stop-color="#8513a0"/><stop offset="0.88" stop-color="#90059b"/><stop offset="1" stop-color="#940099"/></linearGradient><linearGradient id="Безымянный_градиент_30-2" x1="-430" y1="511.51" x2="1307.71" y2="-355.73" xlink:href="#Безымянный_градиент_30"/><linearGradient id="Безымянный_градиент_30-3" x1="-415.87" y1="539.82" x2="1321.83" y2="-327.42" xlink:href="#Безымянный_градиент_30"/><linearGradient id="Безымянный_градиент_30-4" x1="-403.41" y1="564.8" x2="1334.3" y2="-302.44" xlink:href="#Безымянный_градиент_30"/><linearGradient id="Безымянный_градиент_30-5" x1="-393.21" y1="585.23" x2="1344.5" y2="-282.01" xlink:href="#Безымянный_градиент_30"/><linearGradient id="Безымянный_градиент_30-6" x1="-379.11" y1="613.49" x2="1358.6" y2="-253.75" xlink:href="#Безымянный_градиент_30"/></defs><title>Ресурс 38</title><g id="Слой_2" data-name="Слой 2"><g id="Слой_1-2" data-name="Слой 1"><path class="cls-1" d="M113.8,458.5C51.33,458.5.5,406.08.5,341.64V117.36C.5,52.92,51.33.5,113.8.5H345.2c62.47,0,113.3,52.42,113.3,116.86V341.64c0,64.44-50.83,116.86-113.3,116.86Z"/><path d="M345.2,1A110.35,110.35,0,0,1,425,35.07,117.48,117.48,0,0,1,458,117.36V341.64A117.48,117.48,0,0,1,425,423.93,110.35,110.35,0,0,1,345.2,458H113.8a110.35,110.35,0,0,1-79.75-34.07A117.48,117.48,0,0,1,1,341.64V117.36A117.48,117.48,0,0,1,34.05,35.07,110.35,110.35,0,0,1,113.8,1H345.2m0-1H113.8C51,0,0,52.54,0,117.36V341.64C0,406.46,51,459,113.8,459H345.2C408.05,459,459,406.46,459,341.64V117.36C459,52.54,408.05,0,345.2,0Z"/><path class="cls-2" d="M64.43,188.37a14.13,14.13,0,0,0-4.37,10.45v14.89H87.74V226.5H60.06v47.23H47.27V198.82A26.43,26.43,0,0,1,51,185.11,28.2,28.2,0,0,1,61.11,175a26.43,26.43,0,0,1,13.71-3.75H89.46v12.79H74.82A14.29,14.29,0,0,0,64.43,188.37Z"/><path class="cls-3" d="M143.46,245.81V219.73a14.33,14.33,0,0,0-4.37-10.51,14.49,14.49,0,0,0-10.64-4.37,14.92,14.92,0,0,0-14.88,14.88v26.08h-13V219.73a27.34,27.34,0,0,1,3.75-14,27.78,27.78,0,0,1,10.21-10.21,28.1,28.1,0,0,1,28.05,0,28,28,0,0,1,10.21,10.15,27.22,27.22,0,0,1,3.75,14v26.08Zm-29,24.17a27.7,27.7,0,0,1-10.21-10.21,27.32,27.32,0,0,1-3.75-14h13a14.9,14.9,0,0,0,14.88,14.88,14.9,14.9,0,0,0,15-14.88h13a27.22,27.22,0,0,1-3.75,14A27.92,27.92,0,0,1,142.54,270a28.1,28.1,0,0,1-28,0Z"/><path class="cls-4" d="M227.47,191.81v81.92H199.3a27,27,0,0,1-14-3.81,28.72,28.72,0,0,1-10.27-10.27,27,27,0,0,1-3.81-14h13a15.11,15.11,0,0,0,15,15h15.13V191.81Zm-43.17,0v53.88h-13V191.81Z"/><path class="cls-5" d="M248.44,205.77a27.94,27.94,0,0,1,24.3-14v13a14.92,14.92,0,0,0-15,15v53.87h-13V219.86A27.57,27.57,0,0,1,248.44,205.77Z"/><path class="cls-6" d="M341,229.82v16a27.22,27.22,0,0,1-3.75,14A28.06,28.06,0,0,1,313,273.73,27.29,27.29,0,0,1,299,270a27.63,27.63,0,0,1-10.21-10.21,27.22,27.22,0,0,1-3.75-14h13a14.95,14.95,0,0,0,29.89,0v-5.29L285,232.77v-13a27.24,27.24,0,0,1,3.75-14A27.7,27.7,0,0,1,299,195.56a27.93,27.93,0,0,1,30.5,1.66,27.93,27.93,0,0,1,10.15,13.9l-12.18,4.8a15,15,0,0,0-5.35-7.93,14.91,14.91,0,0,0-24.05,11.74v2.34Z"/><path class="cls-7" d="M397.77,195.56A27.92,27.92,0,0,1,408,205.71a27.22,27.22,0,0,1,3.75,14v13l-42.93,7.75v5.29a14.95,14.95,0,0,0,29.89,0h13a27.22,27.22,0,0,1-3.75,14,28.06,28.06,0,0,1-24.3,13.9,27.34,27.34,0,0,1-14-3.75,27.78,27.78,0,0,1-10.21-10.21,27.32,27.32,0,0,1-3.75-14V219.73a27.34,27.34,0,0,1,3.75-14,27.85,27.85,0,0,1,10.21-10.21,28.1,28.1,0,0,1,28,0Zm.92,26.51v-2.34a14.33,14.33,0,0,0-4.37-10.51,14.47,14.47,0,0,0-10.64-4.37,14.92,14.92,0,0,0-14.88,14.88v7.75Z"/></g></g></svg>